<?xml version="1.0" encoding="UTF-8" standalone="no"?>
<svg width="13px" height="20px" viewBox="0 0 13 20" version="1.1" xmlns="http://www.w3.org/2000/svg" xmlns:xlink="http://www.w3.org/1999/xlink">
    <!-- Generator: Sketch 39.1 (31720) - http://www.bohemiancoding.com/sketch -->
    <title>flame</title>
    <desc>Created with Sketch.</desc>
    <defs></defs>
    <g id="Page-1" stroke="none" stroke-width="1" fill="none" fill-rule="evenodd">
        <path d="M3.67731816,16.7998208 C2.92148093,15.9264247 2.48002049,14.2611609 2.48002049,12.9604815 C2.48002049,10.8291344 2.75336889,10.1661317 3.67731818,8.55186976 C4.07270738,7.86068865 6.36527674,7.49459648 5.02298927,4.15341231 C4.31429824,2.38935853 5.70667292,5.51064385 6.24404454,5.14510757 C7.60526639,7.16777161 7.83984375,6.13615424 7.83984375,4.62109376 C9.27983757,8.15881841 9.42893998,7.30640416 9.83522367,8.01530494 C10.7605072,9.62956685 11.9301996,10.8298586 11.9301996,12.9604815 C11.9301996,14.2633336 11.5652047,15.9293216 10.8140373,16.7998208 C10.0702081,17.6616295 8.29116741,18.6977462 7.20511004,18.6977462 C6.12905934,18.697022 4.42314871,17.6616295 3.67731816,16.7998208 Z M2.757,18.154 C1.624,16.948 1,15.295 1,13.499 C1,10.556 1.37199997,9.98834935 2.75699997,7.75934935 C3.34968838,6.80495483 5.51637949,5.95161399 3.50429058,1.33805068 C2.44196272,-1.09778444 5.1556735,3.93481032 5.96119356,3.43007167 C8.00166512,6.22300021 6.9920001,3.43007151 6.9920001,1.33805052 C9.15055084,6.22300023 9.86299707,6.2210611 10.4720163,7.19992322 C11.8590163,9.42892322 12.992,10.558 12.992,13.5 C12.992,15.299 12.372,16.952 11.246,18.154 C10.131,19.344 8.62,20 6.992,20 C5.379,19.999 3.875,19.344 2.757,18.154 Z" id="Shape" fill="#000000"></path>
    </g>
</svg>